<svg width="512" height="512" viewBox="0 0 512 512" fill="none" xmlns="http://www.w3.org/2000/svg">
  <defs>
    <filter id="white-glow" x="-50%" y="-50%" width="200%" height="200%">
      <feDropShadow dx="0" dy="0" stdDeviation="8" flood-color="white" flood-opacity="0.9"/>
    </filter>
  </defs>

  <g filter="url(#white-glow)">
      <path d="M365.5 378C355.7 392.2 343.3 410 324.3 410.5C306.1 411 300.2 399.8 279 399.8C257.5 399.8 250.7 410.5 233.5 411C215.3 411.5 201.2 393 190.5 377.5C168.7 346 152 288.2 174.5 249C185.7 229.5 205.7 217.2 227.2 217.2C244.7 217.2 258 229 279 229C299.7 229 310.2 217.2 331 216.7C353.5 216.2 373.7 227.5 385 244C305 291 330 365 365.5 378Z" fill="#001F3F"/>
      
      <path d="M315.5 174.5C324.7 163.2 331 147.5 329.2 131.5C314.7 132 299.7 141.2 289.2 154C280 164.7 272 181 274.2 196.5C290 197.7 306 186.7 315.5 174.5Z" fill="#001F3F"/>
  </g>

  <line x1="380" y1="340" x2="415" y2="375" stroke="#001F3F" stroke-width="14" stroke-linecap="round"/>
  <line x1="380" y1="340" x2="415" y2="375" stroke="white" stroke-width="6" stroke-linecap="round"/>
  
  <circle cx="340" cy="300" r="55" stroke="white" stroke-width="8" fill="#001F3F"/>
  
  <circle cx="340" cy="300" r="22" fill="white"/>
  
  <circle cx="325" cy="285" r="6" fill="white" fill-opacity="0.6"/>
</svg>